# xmcd
# Copyright (C) 1995-1998 Ti Kan
#
# Track frame offsets:
#       182
#       15897
#       31845
#       52930
#       72432
#       85895
#       97690
#       111867
#       131542
#       150017
#       168560
#       183820
#       195675
#       217532
#       239232
#       254742
#
# Disc length: 3610 seconds
#
# Revision: 0
# Processed by: cddbd v1.5.1PL0 Copyright (c) Steve Scherf et al.
# Submitted via: CD-Transfer v1.0
#
DISCID=c20e1810
DTITLE=Various Artist - 
DYEAR=93
DGENRE=
TTITLE0=Jimmy James and the Vagabonds    I'll go where your music takes me
TTITLE1=Dollar    Love's gotta hold on me
TTITLE2=Melanie     Ruby tuesday
TTITLE3=Sylvia    Pillow walk
TTITLE4=Joe Dolan    Make me an island
TTITLE5=The Foundations     Baby, now that I've found you
TTITLE6=Carl Douglas     Kung Fu fighting
TTITLE7=Driver 67    Car 67
TTITLE8=Simon May    Summer of my life
TTITLE9=David Parton    Isn't she lovely
TTITLE10=Sweet Sensation     Sad sweet dreamer
TTITLE11=Jonathan Richman and the Modern Lovers    Egyptian Reggae
TTITLE12=Shirley and Co    Shame, Shame, Shame
TTITLE13=First Class     Beach Baby
TTITLE14=Goldie     Making up again
TTITLE15=Stretch     Why did you do it
EXTD=
EXTT0=
EXTT1=
EXTT2=
EXTT3=
EXTT4=
EXTT5=
EXTT6=
EXTT7=
EXTT8=
EXTT9=
EXTT10=
EXTT11=
EXTT12=
EXTT13=
EXTT14=
EXTT15=
PLAYORDER=
